<svg width="20" height="20" viewBox="0 0 20 20" fill="none" xmlns="http://www.w3.org/2000/svg">
<path d="M15.474 3.33182C14.9595 2.35382 14.1539 1.53893 13.156 0.947841C12.1585 0.359364 10.9544 2.81303e-05 9.64752 2.81303e-05C8.03666 -0.00395624 6.6983 0.415731 5.68819 0.996942C4.67405 1.57608 4.23678 2.25038 4.23678 2.25038C4.06635 2.39827 3.97022 2.61343 3.97424 2.8385C3.97885 3.0639 4.08264 3.27546 4.25834 3.416L5.66198 4.54022C5.94807 4.76929 6.35752 4.76069 6.63366 4.51999C6.63366 4.51999 6.80608 4.20835 7.34643 3.89968C7.88979 3.59304 8.59428 3.34604 9.64752 3.34272C10.5662 3.34073 11.3671 3.68354 11.9138 4.15198C12.1853 4.38405 12.3882 4.64393 12.5125 4.88167C12.6378 5.12136 12.6836 5.33089 12.683 5.49003C12.6803 6.02776 12.5758 6.37948 12.425 6.67917C12.31 6.90296 12.1598 7.10155 11.9665 7.29417C11.6781 7.58261 11.2869 7.84913 10.848 8.09413C10.4087 8.3421 9.9353 8.56022 9.4569 8.82382C8.91088 9.12616 8.33307 9.56046 7.90608 10.2123C7.69323 10.5345 7.52678 10.9031 7.42108 11.292C7.31397 11.6812 7.26561 12.0893 7.26561 12.5057C7.26561 12.9499 7.26561 13.3146 7.26561 13.3146C7.26561 13.7333 7.60506 14.0728 8.02381 14.0728H9.85045C10.2692 14.0728 10.6087 13.7333 10.6087 13.3146C10.6087 13.3146 10.6087 12.9499 10.6087 12.5057C10.6087 12.3453 10.6269 12.2418 10.6445 12.1762C10.6747 12.078 10.6916 12.0535 10.741 11.9938C10.7914 11.9371 10.8931 11.8503 11.0807 11.7465C11.3549 11.5924 11.7955 11.3842 12.2944 11.1146C13.0413 10.7062 13.9494 10.1519 14.7152 9.23722C15.0961 8.78073 15.4329 8.23104 15.6653 7.59784C15.8997 6.96464 16.0263 6.25288 16.0257 5.49003C16.025 4.71722 15.8155 3.98323 15.474 3.33182Z" fill="black"/>
<path d="M8.93752 15.8765C7.79877 15.8765 6.87549 16.8001 6.87549 17.9385C6.87549 19.0766 7.79881 19.9999 8.93752 19.9999C10.0756 19.9999 10.9986 19.0766 10.9986 17.9385C10.9986 16.8001 10.0756 15.8765 8.93752 15.8765Z" fill="black"/>
</svg>
