<svg width="15" height="16" viewBox="0 0 15 16" fill="none" xmlns="http://www.w3.org/2000/svg">
<path d="M7.21321 16C6.92154 16 6.67723 15.8903 6.48027 15.6709C6.28262 15.4522 6.1838 15.181 6.1838 14.8571V9.14286H1.03674C0.745069 9.14286 0.500413 9.03314 0.302766 8.81371C0.105805 8.59505 0.00732422 8.32381 0.00732422 8C0.00732422 7.67619 0.105805 7.40457 0.302766 7.18514C0.500413 6.96648 0.745069 6.85714 1.03674 6.85714H6.1838V1.14286C6.1838 0.819048 6.28262 0.547429 6.48027 0.328C6.67723 0.109334 6.92154 0 7.21321 0C7.50487 0 7.74953 0.109334 7.94718 0.328C8.14414 0.547429 8.24262 0.819048 8.24262 1.14286V6.85714H13.3897C13.6813 6.85714 13.9257 6.96648 14.1226 7.18514C14.3203 7.40457 14.4191 7.67619 14.4191 8C14.4191 8.32381 14.3203 8.59505 14.1226 8.81371C13.9257 9.03314 13.6813 9.14286 13.3897 9.14286H8.24262V14.8571C8.24262 15.181 8.14414 15.4522 7.94718 15.6709C7.74953 15.8903 7.50487 16 7.21321 16Z" fill="#434343"/>
</svg>
