<svg width="50" height="50" viewBox="0 0 100 23" fill="none" xmlns="http://www.w3.org/2000/svg">
<path d="M96.26 22.5C95.92 21.87 95.6 21.23 95.26 20.62C95.06 20.28 95.11 20.11 95.45 19.9C95.8621 19.7126 96.2152 19.416 96.4708 19.0423C96.7264 18.6686 96.8748 18.232 96.9 17.78C96.9332 17.323 96.7849 16.8715 96.4872 16.5232C96.1895 16.175 95.7665 15.9583 95.31 15.92C95.2236 15.91 95.1364 15.91 95.05 15.92H87.29C85.54 15.92 85.8 16.14 85.77 14.4C85.751 13.8188 85.8392 13.2392 86.03 12.69C86.3372 11.8542 86.8963 11.1344 87.63 10.63C87.87 10.45 87.96 10.37 87.63 10.13C87.0498 9.63916 86.5724 9.03833 86.2254 8.36217C85.8784 7.68602 85.6686 6.94788 85.6082 6.1903C85.5478 5.43271 85.6379 4.67066 85.8734 3.94805C86.1088 3.22544 86.4849 2.55657 86.98 1.97997C87.05 1.89997 87.11 1.81999 87.18 1.74999C88.077 0.871641 89.2423 0.318921 90.49 0.179982C92.1859 -0.185689 93.9565 0.0586519 95.49 0.869985C95.7475 1.08148 96.0745 1.18942 96.4074 1.17278C96.7402 1.15614 97.0549 1.01608 97.29 0.779958C97.6645 0.477625 98.1062 0.269849 98.5778 0.174123C99.0495 0.0783973 99.5373 0.097544 100 0.22997V2.72997C99.48 2.90997 98.9 2.72998 98.37 2.98998C97.84 3.24998 97.77 3.3 97.95 3.82C98.2128 4.49951 98.339 5.22415 98.3214 5.9525C98.3038 6.68086 98.1427 7.39862 97.8473 8.06463C97.5519 8.73063 97.1281 9.33182 96.6 9.83379C96.072 10.3358 95.4501 10.7287 94.77 10.99C94.4241 11.1228 94.0656 11.2199 93.7 11.28C92.79 11.46 91.86 11.39 90.94 11.51C90.5629 11.5314 90.1958 11.6401 89.8679 11.8275C89.5399 12.0149 89.2599 12.2759 89.05 12.59C88.94 12.77 88.77 12.96 88.9 13.18C89.03 13.4 89.24 13.28 89.41 13.28C91.48 13.28 93.55 13.23 95.61 13.28C96.4145 13.2752 97.2018 13.5131 97.869 13.9626C98.5362 14.4122 99.0523 15.0525 99.35 15.8C99.7499 16.7499 99.8579 17.7975 99.6602 18.8091C99.4625 19.8207 98.9681 20.7504 98.24 21.48C97.86 21.87 97.36 22.09 96.97 22.48L96.26 22.5ZM91.96 8.49999C92.3363 8.52582 92.7139 8.47722 93.0714 8.35698C93.4289 8.23674 93.7592 8.04722 94.0434 7.79925C94.3276 7.55127 94.5601 7.24969 94.7277 6.91179C94.8952 6.57389 94.9946 6.20626 95.02 5.82995C95.0564 5.37918 94.9847 4.92629 94.8107 4.50884C94.6368 4.09139 94.3657 3.72151 94.02 3.42998C93.3807 2.97383 92.606 2.74728 91.8217 2.78722C91.0374 2.82716 90.2896 3.13122 89.7 3.64995C89.2805 4.06252 88.9996 4.59518 88.8959 5.17431C88.7923 5.75344 88.871 6.35049 89.1213 6.88292C89.3716 7.41536 89.7811 7.85686 90.2932 8.14653C90.8053 8.43621 91.3947 8.55975 91.98 8.49999H91.96Z" fill="#00B7E2"/>
<path d="M45.62 14.86V21.67C45.6343 21.7694 45.6087 21.8704 45.5487 21.951C45.4888 22.0315 45.3994 22.0851 45.3 22.0999H42.87C42.8206 22.1069 42.7703 22.1039 42.7221 22.0909C42.674 22.078 42.6289 22.0553 42.5896 22.0245C42.5504 21.9937 42.5178 21.9553 42.4938 21.9115C42.4698 21.8678 42.4549 21.8196 42.45 21.7699C42.4402 21.7339 42.4402 21.696 42.45 21.6599V1.16996C42.45 0.349955 42.45 0.339938 43.3 0.339938H44.71C45.36 0.339938 45.4 0.339982 45.42 1.00998C45.4055 1.08021 45.405 1.1526 45.4187 1.22299C45.4325 1.29339 45.4601 1.36035 45.5 1.41996L46.1 0.989962C48.17 -0.500038 51.81 -0.290023 53.52 1.62998C54.5258 2.78394 55.0861 4.25926 55.1 5.78995C55.2 7.43176 55.2 9.07813 55.1 10.7199C54.83 13.8499 53.1 15.8899 49.77 16.0899C48.5341 16.1898 47.3007 15.8691 46.27 15.18C46.1229 15.0708 45.9693 14.9706 45.81 14.88C45.81 14.88 45.73 14.87 45.62 14.86ZM45.62 8.05997V10.06C45.62 12.19 46.77 13.29 48.92 13.23C49.2864 13.2352 49.6503 13.1683 49.9908 13.0329C50.3313 12.8976 50.6418 12.6965 50.9046 12.4411C51.1674 12.1858 51.3774 11.8812 51.5224 11.5447C51.6675 11.2081 51.7448 10.8464 51.75 10.48C51.75 8.92995 51.75 7.38994 51.75 5.83994C51.6785 5.07134 51.3201 4.35791 50.7462 3.84171C50.1723 3.32551 49.425 3.04445 48.6531 3.05454C47.8813 3.06463 47.1415 3.36513 46.5813 3.89615C46.021 4.42718 45.6814 5.14975 45.63 5.91996C45.63 6.63996 45.63 7.36995 45.63 8.09995L45.62 8.05997Z" fill="#FF4311"/>
<path d="M67.25 15.84H66.49C66.11 15.84 65.8401 15.76 65.8201 15.3C65.8001 14.84 65.56 15.13 65.42 15.21C64.6262 15.7082 63.7301 16.021 62.7986 16.1249C61.8671 16.2288 60.9242 16.1211 60.04 15.81C59.0735 15.5166 58.2205 14.9333 57.5963 14.1392C56.9721 13.3451 56.6069 12.3785 56.55 11.37C56.3331 10.2004 56.5222 8.99174 57.0859 7.94423C57.6497 6.89672 58.5543 6.07318 59.65 5.61C60.5127 5.23978 61.4486 5.07163 62.3863 5.11842C63.3239 5.16522 64.2385 5.42574 65.06 5.88002C65.25 5.98002 65.4501 6.22001 65.6301 6.12001C65.8101 6.02001 65.72 5.72003 65.72 5.51003C65.7202 4.82013 65.4503 4.15755 64.9681 3.66414C64.4859 3.17073 63.8297 2.88569 63.14 2.87001C61.692 2.78155 60.2456 3.06735 58.9401 3.69997C58.5301 3.88997 58.3201 3.85 58.1901 3.42C58.0001 2.83 57.79 2.23999 57.58 1.65999C57.48 1.38999 57.52 1.19998 57.79 1.08998C60.13 0.169982 62.53 -0.419979 65.02 0.380021C65.9898 0.708202 66.8471 1.30383 67.4929 2.09828C68.1387 2.89273 68.5468 3.85362 68.67 4.87001C68.73 5.43509 68.73 6.00495 68.67 6.57002V14.98C68.67 15.78 68.67 15.79 67.85 15.8L67.25 15.84ZM62.68 13.42C63.4237 13.4577 64.1527 13.2039 64.7121 12.7125C65.2716 12.2212 65.6174 11.531 65.676 10.7888C65.7346 10.0465 65.5013 9.31062 65.0259 8.73757C64.5505 8.16451 63.8704 7.79945 63.1301 7.71999H62.7C61.9536 7.6787 61.221 7.93228 60.6598 8.4261C60.0987 8.91992 59.7539 9.61445 59.7 10.36V10.55C59.6893 10.9177 59.7513 11.284 59.8823 11.6278C60.0132 11.9716 60.2106 12.2862 60.4632 12.5537C60.7158 12.8211 61.0187 13.0362 61.3544 13.1865C61.6902 13.3369 62.0523 13.4197 62.42 13.43L62.68 13.42Z" fill="#FFC100"/>
<path d="M25.6 8.43994C25.65 9.42076 25.6199 10.404 25.51 11.3799C24.93 14.4799 22.92 15.8899 19.98 16.1599C18.8714 16.2616 17.7538 16.1287 16.6999 15.7699C15.6241 15.409 14.6863 14.7243 14.0149 13.8095C13.3435 12.8946 12.9715 11.7945 12.9499 10.6599C12.9499 8.99992 12.8699 7.33991 12.9499 5.65991C12.9485 4.22762 13.4999 2.85002 14.4891 1.81421C15.4784 0.778408 16.8292 0.164318 18.26 0.0999174C19.481 -0.0496726 20.72 0.0697646 21.8899 0.449893C22.9423 0.807641 23.8604 1.47806 24.5216 2.37152C25.1828 3.26499 25.5555 4.33894 25.59 5.44989C25.63 6.31989 25.6 7.18994 25.6 8.43994ZM16.22 8.06995C16.22 8.81995 16.22 9.5799 16.22 10.3299C16.2012 10.708 16.2577 11.0861 16.3861 11.4422C16.5145 11.7983 16.7124 12.1254 16.9682 12.4045C17.224 12.6835 17.5326 12.9091 17.8763 13.0679C18.2199 13.2268 18.5917 13.3158 18.97 13.3299H19.21C19.9916 13.3856 20.764 13.1333 21.3621 12.6268C21.9601 12.1204 22.3362 11.4001 22.41 10.6199C22.4149 10.54 22.4149 10.4599 22.41 10.3799C22.41 8.87995 22.41 7.37993 22.41 5.85993C22.4247 5.15584 22.1819 4.47061 21.7271 3.93293C21.2723 3.39524 20.6368 3.04214 19.94 2.93994C19.4775 2.82065 18.9931 2.81349 18.5273 2.91913C18.0614 3.02477 17.6276 3.24011 17.2618 3.54724C16.8959 3.85438 16.6087 4.24442 16.4241 4.68494C16.2394 5.12546 16.1625 5.6037 16.1999 6.0799C16.1999 6.7499 16.1999 7.4199 16.1999 8.0799L16.22 8.06995Z" fill="#9D4E19"/>
<path d="M37.09 14.79C36.9 14.79 36.78 14.9701 36.63 15.0701C35.7528 15.7213 34.7105 16.1133 33.6216 16.2017C32.5326 16.29 31.4408 16.0713 30.47 15.5701C29.6528 15.1616 28.9558 14.5477 28.4474 13.7886C27.939 13.0295 27.6366 12.1513 27.57 11.2401C27.4652 10.2905 27.435 9.33428 27.48 8.38007C27.48 5.95007 27.48 3.52003 27.48 1.09003C27.48 0.390027 27.48 0.350027 28.23 0.340027H30.04C30.67 0.340027 30.73 0.410039 30.73 1.04004C30.73 4.04004 30.73 7.04004 30.73 10.04C30.67 12.7 32.98 13.87 35.2 13.04C35.7551 12.7895 36.2208 12.3759 36.5351 11.8544C36.8495 11.3328 36.9977 10.7279 36.96 10.1201V1.12006C36.96 0.350056 36.96 0.330068 37.74 0.320068H39.61C40 0.320068 40.14 0.480056 40.14 0.870056V15.3C40.14 15.7 39.96 15.83 39.59 15.83C39 15.83 38.41 15.83 37.82 15.83C37.23 15.83 37.11 15.65 37.16 15.15C37.1756 15.0886 37.1774 15.0245 37.1653 14.9622C37.1532 14.9 37.1275 14.8412 37.09 14.79Z" fill="#9D4E19"/>
<path d="M74.08 1.50008C74.8988 0.76872 75.9075 0.28341 76.99 0.100055C80.87 -0.429945 83.41 1.88008 83.64 5.31008C83.87 8.74008 83.64 11.9801 83.73 15.3101C83.73 15.7201 83.55 15.8801 83.14 15.8701C82.49 15.8701 81.83 15.8701 81.14 15.8701C80.45 15.8701 80.45 15.8701 80.45 15.1801V5.98006C80.488 5.2664 80.2593 4.56411 79.8084 4.00966C79.3574 3.45522 78.7165 3.08823 78.01 2.98006C77.6212 2.87571 77.2152 2.85073 76.8164 2.90657C76.4177 2.96241 76.0343 3.09791 75.689 3.30507C75.3437 3.51223 75.0437 3.78676 74.8068 4.11232C74.5699 4.43788 74.401 4.80779 74.31 5.20003C74.2302 5.49635 74.1997 5.80385 74.22 6.11006V15.21C74.22 15.9 74.22 15.9201 73.51 15.9201H71.6C71.22 15.9201 71.05 15.8 71.05 15.4C71.05 10.5867 71.05 5.77337 71.05 0.96004C71.05 0.55004 71.22 0.390043 71.62 0.400043H73.29C73.96 0.400043 73.99 0.400055 74.01 1.10005C74.05 1.17006 74.06 1.28008 74.08 1.50008Z" fill="#71CE00"/>
<path d="M-0.0200054 7.86008C-0.0782654 6.77476 -0.0313656 5.68636 0.120009 4.61008C0.408247 3.4073 1.07854 2.33035 2.03047 1.54068C2.9824 0.751008 4.16465 0.291157 5.39998 0.230071C6.55592 0.112353 7.72371 0.217588 8.83998 0.540068C10.093 0.891996 11.1654 1.70706 11.84 2.8201C12.19 3.3901 12.14 3.5201 11.56 3.8201C10.98 4.1201 10.51 4.34004 10 4.64004C9.94685 4.69509 9.88314 4.73887 9.8127 4.76877C9.74226 4.79866 9.6665 4.81412 9.58998 4.81412C9.51346 4.81412 9.43776 4.79866 9.36732 4.76877C9.29688 4.73887 9.23317 4.69509 9.18001 4.64004C9.12384 4.58452 9.08257 4.51578 9.06001 4.44009C8.74514 3.90471 8.26879 3.48275 7.69929 3.23483C7.1298 2.98691 6.49639 2.92577 5.88997 3.06009C5.21398 3.0953 4.57635 3.38499 4.10518 3.871C3.63401 4.35701 3.36423 5.00332 3.34999 5.68008C3.19503 7.43333 3.19503 9.19679 3.34999 10.95C3.40162 11.5682 3.66609 12.1493 4.09828 12.5943C4.53047 13.0392 5.1036 13.3204 5.71999 13.39C6.33259 13.5188 6.96974 13.4609 7.54909 13.2238C8.12844 12.9867 8.62337 12.5814 8.96999 12.0601C9.24998 11.5601 9.49998 11.5301 9.96999 11.8001C10.44 12.0701 10.97 12.3301 11.54 12.6001C12.11 12.8701 12.18 13.0201 11.81 13.6001C11.3285 14.3834 10.6351 15.0144 9.81001 15.4201C8.79115 15.9338 7.67172 16.2171 6.53114 16.25C5.39056 16.2828 4.25671 16.0643 3.20998 15.6101C2.25193 15.2008 1.43517 14.5192 0.860976 13.6499C0.286781 12.7806 -0.019561 11.7619 -0.0200054 10.7201C-0.0200054 9.84006 -0.0200054 8.98008 -0.0200054 7.86008Z" fill="#9D4E19"/>
</svg>
